<mxfile host="Electron" agent="Mozilla/5.0 (X11; Linux x86_64) AppleWebKit/537.36 (KHTML, like Gecko) draw.io/26.0.4 Chrome/128.0.6613.186 Electron/32.2.5 Safari/537.36" version="26.0.4">
  <diagram name="Page-1" id="XbA6KAwdpJH8SalKsXoY">
    <mxGraphModel dx="1964" dy="666" grid="1" gridSize="10" guides="1" tooltips="1" connect="1" arrows="1" fold="1" page="1" pageScale="1" pageWidth="850" pageHeight="1100" math="0" shadow="0">
      <root>
        <mxCell id="0" />
        <mxCell id="1" parent="0" />
        <mxCell id="V6iA_a0LcmLjAf5y07oW-3" style="edgeStyle=orthogonalEdgeStyle;rounded=0;orthogonalLoop=1;jettySize=auto;html=1;" edge="1" parent="1" source="V6iA_a0LcmLjAf5y07oW-1" target="V6iA_a0LcmLjAf5y07oW-2">
          <mxGeometry relative="1" as="geometry" />
        </mxCell>
        <mxCell id="V6iA_a0LcmLjAf5y07oW-1" value="Src,Tgt,Attribute" style="shape=parallelogram;perimeter=parallelogramPerimeter;whiteSpace=wrap;html=1;fixedSize=1;" vertex="1" parent="1">
          <mxGeometry x="-10" y="190" width="120" height="60" as="geometry" />
        </mxCell>
        <mxCell id="V6iA_a0LcmLjAf5y07oW-5" style="edgeStyle=orthogonalEdgeStyle;rounded=0;orthogonalLoop=1;jettySize=auto;html=1;" edge="1" parent="1" source="V6iA_a0LcmLjAf5y07oW-2" target="V6iA_a0LcmLjAf5y07oW-4">
          <mxGeometry relative="1" as="geometry" />
        </mxCell>
        <mxCell id="V6iA_a0LcmLjAf5y07oW-2" value="LookUp Structruedefinition" style="rounded=0;whiteSpace=wrap;html=1;" vertex="1" parent="1">
          <mxGeometry x="170" y="190" width="120" height="60" as="geometry" />
        </mxCell>
        <mxCell id="V6iA_a0LcmLjAf5y07oW-7" value="" style="edgeStyle=orthogonalEdgeStyle;rounded=0;orthogonalLoop=1;jettySize=auto;html=1;" edge="1" parent="1" source="V6iA_a0LcmLjAf5y07oW-4" target="V6iA_a0LcmLjAf5y07oW-6">
          <mxGeometry relative="1" as="geometry" />
        </mxCell>
        <mxCell id="V6iA_a0LcmLjAf5y07oW-4" value="Generate FhirPath+TerserPath" style="rounded=0;whiteSpace=wrap;html=1;" vertex="1" parent="1">
          <mxGeometry x="365" y="190" width="120" height="60" as="geometry" />
        </mxCell>
        <mxCell id="V6iA_a0LcmLjAf5y07oW-9" value="" style="edgeStyle=orthogonalEdgeStyle;rounded=0;orthogonalLoop=1;jettySize=auto;html=1;" edge="1" parent="1" source="V6iA_a0LcmLjAf5y07oW-6" target="V6iA_a0LcmLjAf5y07oW-8">
          <mxGeometry relative="1" as="geometry" />
        </mxCell>
        <mxCell id="V6iA_a0LcmLjAf5y07oW-6" value="Load Fhir Path" style="rounded=0;whiteSpace=wrap;html=1;" vertex="1" parent="1">
          <mxGeometry x="530" y="190" width="120" height="60" as="geometry" />
        </mxCell>
        <mxCell id="V6iA_a0LcmLjAf5y07oW-11" value="" style="edgeStyle=orthogonalEdgeStyle;rounded=0;orthogonalLoop=1;jettySize=auto;html=1;" edge="1" parent="1" source="V6iA_a0LcmLjAf5y07oW-8" target="V6iA_a0LcmLjAf5y07oW-10">
          <mxGeometry relative="1" as="geometry" />
        </mxCell>
        <mxCell id="V6iA_a0LcmLjAf5y07oW-8" value="Check must have" style="whiteSpace=wrap;html=1;rounded=0;" vertex="1" parent="1">
          <mxGeometry x="680" y="190" width="120" height="60" as="geometry" />
        </mxCell>
        <mxCell id="V6iA_a0LcmLjAf5y07oW-10" value="execute copy with Terser" style="whiteSpace=wrap;html=1;rounded=0;" vertex="1" parent="1">
          <mxGeometry x="680" y="290" width="120" height="60" as="geometry" />
        </mxCell>
      </root>
    </mxGraphModel>
  </diagram>
</mxfile>
